<svg xmlns="http://www.w3.org/2000/svg" xmlns:xlink="http://www.w3.org/1999/xlink" width="1056" zoomAndPan="magnify" viewBox="0 0 792 611.999999" height="816" preserveAspectRatio="xMidYMid meet" version="1.0"><defs><g/></defs><g fill="#110e38" fill-opacity="1"><g transform="translate(-12.831724, 525.146584)"><g><path d="M 162 4.625 C 208.800781 5.144531 244.800781 -4.363281 270 -23.90625 C 295.195312 -43.457031 307.796875 -71.742188 307.796875 -108.765625 C 307.796875 -129.335938 303.035156 -146.695312 293.515625 -160.84375 C 284.003906 -174.988281 271.789062 -186.945312 256.875 -196.71875 C 241.96875 -206.488281 226.023438 -214.84375 209.046875 -221.78125 C 192.078125 -228.726562 176.132812 -234.769531 161.21875 -239.90625 C 146.3125 -245.050781 134.097656 -250.066406 124.578125 -254.953125 C 115.066406 -259.835938 110.3125 -265.367188 110.3125 -271.546875 C 110.3125 -289.023438 126.515625 -297.765625 158.921875 -297.765625 C 173.828125 -297.765625 186.164062 -293.519531 195.9375 -285.03125 C 205.707031 -276.550781 212.140625 -264.34375 215.234375 -248.40625 L 300.078125 -273.859375 C 291.859375 -311.910156 275.660156 -340.960938 251.484375 -361.015625 C 227.316406 -381.078125 196.460938 -391.109375 158.921875 -391.109375 C 112.117188 -391.109375 76.242188 -381.335938 51.296875 -361.796875 C 26.359375 -342.253906 13.890625 -314.226562 13.890625 -277.71875 C 13.890625 -257.65625 18.644531 -240.550781 28.15625 -226.40625 C 37.664062 -212.269531 49.878906 -200.441406 64.796875 -190.921875 C 79.710938 -181.410156 95.523438 -173.441406 112.234375 -167.015625 C 128.953125 -160.585938 144.769531 -154.800781 159.6875 -149.65625 C 174.601562 -144.507812 186.816406 -139.238281 196.328125 -133.84375 C 205.835938 -128.445312 210.59375 -122.144531 210.59375 -114.9375 C 210.59375 -97.96875 194.394531 -89.484375 162 -89.484375 C 147.601562 -89.484375 135.644531 -93.722656 126.125 -102.203125 C 116.613281 -110.691406 109.800781 -122.394531 105.6875 -137.3125 L 21.59375 -111.859375 C 29.820312 -74.316406 46.019531 -45.382812 70.1875 -25.0625 C 94.363281 -4.75 124.96875 5.144531 162 4.625 Z M 162 4.625 "/></g></g></g><g fill="#110e38" fill-opacity="1"><g transform="translate(310.396632, 525.146584)"><g><path d="M 67.890625 5.40625 C 51.941406 5.40625 39.597656 1.035156 30.859375 -7.703125 C 22.117188 -16.453125 17.75 -28.800781 17.75 -44.75 C 17.75 -77.65625 34.460938 -94.109375 67.890625 -94.109375 C 101.316406 -94.109375 118.03125 -77.65625 118.03125 -44.75 C 118.03125 -28.800781 113.785156 -16.453125 105.296875 -7.703125 C 96.816406 1.035156 84.347656 5.40625 67.890625 5.40625 Z M 67.890625 5.40625 "/></g></g></g><g fill="#110e38" fill-opacity="1"><g transform="translate(446.167933, 525.146584)"><g><path d="M 224.484375 -55.546875 L 120.34375 -55.546875 L 104.921875 0 L 4.625 0 L 121.109375 -385.71875 L 225.25 -385.71875 L 340.203125 0 L 240.6875 0 Z M 198.25 -145.796875 L 172.796875 -256.890625 L 148.109375 -145.796875 Z M 198.25 -145.796875 "/></g></g></g></svg>
